<svg id="svg" xmlns="http://www.w3.org/2000/svg" xmlns:xlink="http://www.w3.org/1999/xlink" width="400" height="400" viewBox="0, 0, 400,400"><g id="svgg"><path id="path0" d="M130.400 200.000 L 130.400 400.000 186.600 400.000 L 242.800 400.000 242.800 200.000 L 242.800 0.000 186.600 0.000 L 130.400 0.000 130.400 200.000 M305.200 103.400 L 305.200 105.200 303.600 105.200 C 302.160 105.200,302.000 105.300,302.000 106.200 C 302.000 106.933,302.213 107.200,302.800 107.200 C 303.333 107.200,303.600 107.467,303.600 108.000 C 303.600 108.533,303.333 108.800,302.800 108.800 C 302.001 108.800,302.000 109.067,302.000 254.400 L 302.000 400.000 351.000 400.000 L 400.000 400.000 400.000 250.800 L 400.000 101.600 354.400 101.600 L 308.800 101.600 308.800 102.600 C 308.800 103.333,308.587 103.600,308.000 103.600 C 307.413 103.600,307.200 103.333,307.200 102.600 C 307.200 101.800,307.000 101.600,306.200 101.600 C 305.281 101.600,305.200 101.747,305.200 103.400 M0.000 293.800 L 0.000 400.000 50.000 400.000 L 100.000 400.000 100.000 297.400 C 100.000 195.067,99.998 194.800,99.200 194.800 C 98.613 194.800,98.400 194.533,98.400 193.800 C 98.400 193.067,98.613 192.800,99.200 192.800 C 99.733 192.800,100.000 192.533,100.000 192.000 C 100.000 191.319,99.733 191.200,98.200 191.200 L 96.400 191.200 96.400 189.400 C 96.400 187.867,96.281 187.600,95.600 187.600 C 95.067 187.600,94.800 187.867,94.800 188.400 C 94.800 188.987,94.533 189.200,93.800 189.200 C 93.067 189.200,92.800 188.987,92.800 188.400 C 92.800 187.605,92.533 187.600,46.400 187.600 L 0.000 187.600 0.000 293.800 " stroke="none" fill="#8c8c8c" fill-rule="evenodd"></path><path id="path1" d="M303.600 102.600 C 303.600 103.333,303.387 103.600,302.800 103.600 C 302.267 103.600,302.000 103.867,302.000 104.400 C 302.000 105.067,302.267 105.200,303.600 105.200 L 305.200 105.200 305.200 103.400 C 305.200 101.867,305.081 101.600,304.400 101.600 C 303.813 101.600,303.600 101.867,303.600 102.600 M307.200 102.600 C 307.200 103.333,307.413 103.600,308.000 103.600 C 308.587 103.600,308.800 103.333,308.800 102.600 C 308.800 101.867,308.587 101.600,308.000 101.600 C 307.413 101.600,307.200 101.867,307.200 102.600 M302.000 108.000 C 302.000 108.533,302.267 108.800,302.800 108.800 C 303.333 108.800,303.600 108.533,303.600 108.000 C 303.600 107.467,303.333 107.200,302.800 107.200 C 302.267 107.200,302.000 107.467,302.000 108.000 M92.800 188.400 C 92.800 188.987,93.067 189.200,93.800 189.200 C 94.533 189.200,94.800 188.987,94.800 188.400 C 94.800 187.813,94.533 187.600,93.800 187.600 C 93.067 187.600,92.800 187.813,92.800 188.400 M96.400 189.400 L 96.400 191.200 98.200 191.200 C 99.853 191.200,100.000 191.119,100.000 190.200 C 100.000 189.467,99.787 189.200,99.200 189.200 C 98.667 189.200,98.400 188.933,98.400 188.400 C 98.400 187.813,98.133 187.600,97.400 187.600 C 96.481 187.600,96.400 187.747,96.400 189.400 M98.400 193.800 C 98.400 194.533,98.613 194.800,99.200 194.800 C 99.787 194.800,100.000 194.533,100.000 193.800 C 100.000 193.067,99.787 192.800,99.200 192.800 C 98.613 192.800,98.400 193.067,98.400 193.800 " stroke="none" fill="#908c8c" fill-rule="evenodd"></path></g></svg>